<?xml version="1.0" standalone="no"?>
<!DOCTYPE svg PUBLIC "-//W3C//DTD SVG 20010904//EN"
 "http://www.w3.org/TR/2001/REC-SVG-20010904/DTD/svg10.dtd">
<svg version="1.0" xmlns="http://www.w3.org/2000/svg"
 width="1176.000000pt" height="1176.000000pt" viewBox="0 0 1176.000000 1176.000000"
 preserveAspectRatio="xMidYMid meet">
<metadata>
Created by potrace 1.11, written by Peter Selinger 2001-2013
</metadata>
<g transform="translate(0.000000,1176.000000) scale(0.100000,-0.100000)"
fill="#000000" stroke="none">
<path d="M5589 11356 c-2 -2 -182 -7 -399 -11 -217 -3 -435 -8 -485 -10 -49
-2 -162 -7 -250 -10 -232 -8 -513 -22 -605 -30 -25 -2 -88 -6 -140 -10 -52 -3
-115 -8 -140 -10 -91 -9 -176 -17 -215 -20 -54 -5 -154 -16 -185 -20 -14 -2
-79 -11 -145 -20 -66 -8 -131 -17 -145 -20 -14 -2 -52 -9 -85 -14 -33 -6 -71
-13 -85 -16 -14 -3 -42 -8 -62 -10 -51 -7 -277 -61 -363 -86 -189 -57 -285
-93 -421 -160 -403 -196 -654 -465 -888 -949 -102 -213 -194 -440 -404 -1005
-104 -279 -240 -629 -311 -800 -27 -66 -48 -121 -47 -122 1 -1 33 -5 71 -8 39
-3 92 -8 118 -10 26 -3 88 -7 137 -10 l89 -5 46 64 c41 57 175 273 175 281 0
5 109 196 135 235 152 234 217 321 324 434 311 326 674 511 1197 610 12 2 45
7 74 11 29 4 60 8 69 10 9 1 48 6 86 9 39 3 99 9 135 12 72 6 451 7 545 0 135
-9 251 -19 265 -21 8 -2 27 -4 42 -4 l26 -1 -3 -142 c-9 -328 -16 -518 -30
-728 -19 -298 -36 -527 -50 -650 -2 -19 -7 -64 -11 -100 -3 -36 -8 -73 -10
-83 -2 -10 -6 -48 -9 -85 -3 -37 -8 -85 -11 -107 -8 -53 -10 -69 -19 -140 -4
-33 -16 -116 -26 -185 -11 -69 -21 -136 -24 -150 -21 -142 -28 -185 -40 -245
-7 -38 -16 -86 -19 -105 -3 -19 -8 -46 -11 -60 -3 -14 -8 -38 -11 -55 -9 -54
-75 -359 -86 -400 -10 -40 -15 -61 -24 -102 -11 -55 -99 -382 -135 -503 -43
-143 -172 -535 -193 -585 -7 -16 -41 -102 -76 -190 -34 -88 -72 -180 -82 -205
-11 -25 -26 -58 -33 -75 -191 -451 -505 -1001 -860 -1505 -45 -65 -33 -48
-262 -360 -263 -359 -385 -539 -462 -684 -33 -63 -97 -219 -105 -257 -3 -13
-10 -44 -17 -69 -15 -59 -19 -228 -8 -309 5 -36 11 -81 14 -100 13 -101 75
-284 133 -391 81 -151 212 -301 346 -401 45 -32 86 -63 91 -67 21 -16 152 -81
205 -102 257 -103 492 -119 782 -55 642 142 1039 674 1303 1745 34 138 72 306
82 360 2 14 13 68 23 120 10 52 22 115 26 140 4 25 8 47 9 50 1 3 5 28 10 55
4 28 9 59 11 70 7 33 45 278 49 310 10 85 26 191 29 205 3 8 8 46 11 85 4 38
8 72 10 75 1 3 6 33 9 66 3 34 10 92 15 130 5 38 12 94 16 124 3 30 8 66 10
80 2 14 7 54 10 90 4 36 13 124 21 195 21 194 32 294 39 375 3 30 7 71 10 90
4 32 7 66 20 210 3 30 7 75 10 100 2 25 7 77 10 116 3 39 7 80 9 90 2 10 7 60
11 109 8 111 17 206 30 345 2 19 6 71 9 115 4 44 9 103 12 130 2 28 7 70 9 95
2 25 6 81 10 125 4 44 8 95 10 113 2 18 7 68 10 110 3 42 8 97 10 122 3 25 7
79 11 120 3 41 7 95 10 120 2 25 6 83 9 130 3 47 8 96 10 110 2 14 6 59 10
100 3 41 7 100 10 130 3 30 7 82 10 115 2 33 7 87 10 120 2 33 7 92 11 130 3
39 7 86 9 105 3 33 11 124 20 235 6 75 15 184 20 235 3 25 7 79 10 120 3 41 7
95 10 120 3 25 7 74 10 110 3 36 7 85 10 110 6 69 15 167 30 345 3 44 8 96 10
115 2 19 7 67 10 105 3 39 8 88 10 110 2 22 7 74 10 115 9 105 15 153 20 158
3 3 2398 6 2477 3 10 -1 16 -8 14 -18 -2 -10 -7 -74 -11 -143 -3 -69 -8 -147
-10 -175 -2 -27 -7 -90 -10 -140 -7 -101 -12 -180 -20 -275 -3 -36 -7 -99 -10
-140 -3 -41 -8 -95 -10 -120 -2 -25 -7 -79 -10 -120 -3 -41 -7 -95 -10 -120
-2 -25 -7 -79 -11 -120 -3 -41 -7 -91 -9 -110 -2 -19 -6 -69 -9 -110 -4 -41
-8 -91 -11 -110 -3 -19 -7 -69 -11 -110 -3 -41 -7 -93 -10 -115 -2 -22 -6 -67
-9 -100 -6 -64 -10 -111 -20 -214 -4 -35 -8 -80 -10 -100 -2 -20 -6 -63 -10
-96 -3 -33 -8 -85 -10 -115 -3 -30 -7 -73 -10 -95 -8 -70 -14 -128 -20 -210
-4 -44 -8 -87 -10 -95 -3 -8 -7 -50 -10 -93 -4 -44 -8 -86 -10 -95 -1 -10 -6
-60 -10 -112 -4 -52 -9 -102 -10 -111 -2 -9 -6 -52 -10 -95 -3 -43 -8 -86 -10
-94 -2 -8 -7 -53 -10 -100 -4 -47 -8 -96 -10 -110 -2 -14 -7 -63 -10 -110 -4
-47 -8 -92 -10 -100 -2 -8 -6 -55 -10 -105 -4 -49 -8 -103 -10 -120 -1 -16 -6
-66 -9 -110 -4 -44 -9 -98 -11 -120 -2 -22 -7 -71 -10 -110 -3 -38 -7 -92 -10
-120 -3 -27 -7 -81 -10 -120 -3 -38 -8 -95 -10 -125 -3 -30 -7 -89 -10 -130
-3 -41 -7 -97 -10 -125 -2 -27 -7 -95 -10 -150 -4 -55 -8 -125 -10 -155 -14
-197 -20 -293 -30 -500 -3 -58 -8 -139 -10 -180 -25 -489 -26 -949 -1 -1115 3
-16 8 -50 11 -75 4 -25 9 -61 12 -80 17 -123 103 -425 159 -560 57 -140 218
-421 275 -480 8 -8 27 -32 42 -52 40 -54 170 -185 254 -256 317 -268 734 -428
1213 -467 152 -12 524 -5 550 10 3 2 28 6 55 10 330 43 687 202 976 432 559
446 985 1257 1149 2187 20 113 23 138 34 231 14 128 16 157 21 257 4 84 3 108
-7 109 -58 6 -411 2 -415 -4 -2 -4 -6 -36 -9 -70 -2 -34 -6 -77 -9 -94 -3 -18
-8 -55 -11 -83 -5 -40 -53 -252 -68 -295 -174 -530 -540 -828 -1084 -883 -155
-15 -406 6 -513 43 -21 8 -39 12 -39 10 0 -2 -32 9 -72 26 -432 178 -677 572
-783 1259 -3 19 -7 46 -10 60 -2 14 -7 52 -10 85 -3 33 -7 76 -10 95 -28 211
-28 998 0 1385 2 28 6 91 9 140 3 50 8 115 11 145 3 30 7 89 10 130 3 41 7 95
10 120 2 25 7 83 11 130 3 47 7 92 9 100 2 8 6 60 10 114 4 55 8 108 10 118 2
10 7 51 10 91 3 39 8 88 10 107 2 19 7 69 11 110 3 41 7 86 9 100 1 14 6 61
10 105 4 44 9 87 10 95 2 8 6 53 10 100 3 47 8 96 10 110 2 14 7 54 10 90 3
36 8 81 10 100 2 19 7 69 10 110 3 41 8 91 10 110 2 19 7 64 10 100 5 63 13
149 20 220 2 19 6 71 10 115 3 44 8 98 10 120 2 22 6 78 10 125 3 47 8 105 10
130 4 44 11 141 20 273 2 38 7 119 10 180 4 62 8 141 10 177 6 92 16 378 20
555 2 83 4 163 4 178 l1 29 1063 -6 c584 -3 1193 -6 1352 -7 l290 -2 -3 574
c-3 503 -9 1092 -11 1140 -1 15 -35 17 -363 19 -200 1 -622 3 -938 6 -783 6
-4647 14 -4651 10z"/>
</g>
</svg>
